# Blender 3.5.0
# www.blender.org
mtllib elbow.mtl
o Elbow
v 0.979752 0.721240 -2.221936
v 0.979752 0.875953 -2.221936
v 0.979752 0.721240 -2.411124
v 0.979752 0.854851 -2.370914
v 0.979752 0.721240 -2.089580
v 0.979752 0.875953 -2.089580
v 0.979752 0.483083 -2.411124
v 0.979752 0.483083 -2.221936
v 1.045950 0.721240 -2.221936
v 1.045950 0.721240 -2.089580
v 1.045950 0.875953 -2.089580
v 1.045950 0.483083 -2.411124
v 1.045950 0.483083 -2.221936
v 1.029401 0.721240 -2.411124
v 1.012851 0.721240 -2.411124
v 0.996302 0.721240 -2.411124
v 1.029401 0.875953 -2.221936
v 1.012851 0.875953 -2.221936
v 0.996302 0.875953 -2.221936
v 1.029401 0.875953 -2.089580
v 1.012851 0.875953 -2.089580
v 0.996302 0.875953 -2.089580
v 1.029401 0.483083 -2.411124
v 1.012851 0.483083 -2.411124
v 0.996302 0.483083 -2.411124
v 0.996302 0.854851 -2.370914
v 1.012851 0.854851 -2.370914
v 1.029401 0.854851 -2.370914
v 0.996302 0.721240 -2.221936
v 1.012851 0.721240 -2.221936
v 1.029401 0.721240 -2.221936
v 0.996302 0.721240 -2.089580
v 1.012851 0.721240 -2.089580
v 1.029401 0.721240 -2.089580
v 0.996302 0.483083 -2.221936
v 1.012851 0.483083 -2.221936
v 1.029401 0.483083 -2.221936
v 1.029401 0.839048 -2.355112
v 1.045950 0.839048 -2.355112
v 1.045950 0.860151 -2.206134
v 1.045950 0.705437 -2.395321
v 1.045950 0.489711 -2.395321
v 1.045950 0.860151 -2.093534
v 1.029401 0.705437 -2.395321
v 1.029401 0.860151 -2.206134
v 1.029401 0.860151 -2.093534
v 1.029401 0.489711 -2.395321
v 1.112148 0.721240 -2.221936
v 1.112148 0.875953 -2.221936
v 1.112148 0.721240 -2.411124
v 1.112148 0.854851 -2.370914
v 1.112148 0.721240 -2.089580
v 1.112148 0.875953 -2.089580
v 1.112148 0.483083 -2.411124
v 1.112148 0.483083 -2.221936
v 1.062499 0.721240 -2.411124
v 1.079049 0.721240 -2.411124
v 1.095598 0.721240 -2.411124
v 1.062499 0.875953 -2.221936
v 1.079049 0.875953 -2.221936
v 1.095598 0.875953 -2.221936
v 1.062499 0.875953 -2.089580
v 1.079049 0.875953 -2.089580
v 1.095598 0.875953 -2.089580
v 1.062499 0.483083 -2.411124
v 1.079049 0.483083 -2.411124
v 1.095598 0.483083 -2.411124
v 1.095598 0.854851 -2.370914
v 1.079049 0.854851 -2.370914
v 1.062499 0.854851 -2.370914
v 1.095598 0.721240 -2.221936
v 1.079049 0.721240 -2.221936
v 1.062499 0.721240 -2.221936
v 1.095598 0.721240 -2.089580
v 1.079049 0.721240 -2.089580
v 1.062499 0.721240 -2.089580
v 1.095598 0.483083 -2.221936
v 1.079049 0.483083 -2.221936
v 1.062499 0.483083 -2.221936
v 1.062499 0.839048 -2.355112
v 1.062499 0.705437 -2.395321
v 1.062499 0.860151 -2.206134
v 1.062499 0.860151 -2.093534
v 1.062499 0.489711 -2.395321
vn -1.0000 -0.0000 -0.0000
vn -0.0000 1.0000 -0.0000
vn -0.0000 0.9901 -0.1402
vn -0.0000 -0.0000 1.0000
vn -0.0000 -1.0000 -0.0000
vn -0.0000 0.2427 -0.9701
vn -0.0000 0.9222 -0.3868
vn -0.0000 0.2882 -0.9576
vn -0.0000 -0.0000 -1.0000
vn 1.0000 -0.0000 -0.0000
vt 0.342510 0.901600
vt 0.342510 0.901600
vt 0.342510 0.901600
vt 0.342510 0.901600
vt 0.342510 0.901600
vt 0.342510 0.901600
vt 0.342510 0.901600
vt 0.342510 0.901600
vt 0.326761 0.834666
vt 0.255890 0.883882
vt 0.326761 0.834666
vt 0.314949 0.901600
vt 0.740172 0.312980
vt 0.314949 0.901600
vt 0.255890 0.883882
vt 0.740172 0.312980
vt 0.255890 0.883882
vt 0.342510 0.901600
vt 0.740172 0.312980
vt 0.342510 0.901600
vt 0.342510 0.901600
vt 0.342510 0.901600
vt 0.740172 0.312980
vt 0.342510 0.901600
vt 0.342510 0.901600
vt 0.314949 0.901600
vt 0.342510 0.901600
vt 0.740172 0.312980
vt 0.342510 0.901600
vt 0.342510 0.901600
vt 0.342510 0.901600
vt 0.255890 0.883882
vt 0.740172 0.312980
vt 0.342510 0.901600
vt 0.255890 0.883882
vt 0.342510 0.901600
vt 0.255890 0.883882
vt 0.342510 0.901600
vt 0.342510 0.901600
vt 0.342510 0.901600
vt 0.740172 0.312980
vt 0.342510 0.901600
vt 0.255890 0.883882
vt 0.342510 0.901600
vt 0.255890 0.883882
vt 0.326761 0.834666
vt 0.342510 0.901600
vt 0.255890 0.883882
vt 0.342510 0.901600
vt 0.342510 0.901600
vt 0.326761 0.834666
vt 0.314949 0.901600
vt 0.342510 0.901600
vt 0.342510 0.901600
vt 0.255890 0.883882
vt 0.255890 0.883882
vt 0.255890 0.883882
vt 0.696863 0.283451
vt 0.740172 0.312980
vt 0.696863 0.283451
vt 0.696863 0.283451
vt 0.696863 0.283451
vt 0.740172 0.312980
vt 0.696863 0.283451
vt 0.740172 0.312980
vt 0.696863 0.283451
vt 0.740172 0.312980
vt 0.696863 0.283451
vt 0.696863 0.283451
vt 0.740172 0.312980
vt 0.696863 0.283451
vt 0.740172 0.312980
vt 0.740172 0.312980
vt 0.696863 0.283451
vt 0.342510 0.901600
vt 0.342510 0.901600
vt 0.342510 0.901600
vt 0.342510 0.901600
vt 0.342510 0.901600
vt 0.342510 0.901600
vt 0.342510 0.901600
vt 0.342510 0.901600
vt 0.342510 0.901600
vt 0.740172 0.312980
vt 0.342510 0.901600
vt 0.342510 0.901600
vt 0.342510 0.901600
vt 0.740172 0.312980
vt 0.342510 0.901600
vt 0.342510 0.901600
vt 0.314949 0.901600
vt 0.342510 0.901600
vt 0.740172 0.312980
vt 0.342510 0.901600
vt 0.342510 0.901600
vt 0.342510 0.901600
vt 0.255890 0.883882
vt 0.740172 0.312980
vt 0.342510 0.901600
vt 0.255890 0.883882
vt 0.342510 0.901600
vt 0.255890 0.883882
vt 0.342510 0.901600
vt 0.342510 0.901600
vt 0.342510 0.901600
vt 0.740172 0.312980
vt 0.342510 0.901600
vt 0.255890 0.883882
vt 0.342510 0.901600
vt 0.255890 0.883882
vt 0.326761 0.834666
vt 0.342510 0.901600
vt 0.255890 0.883882
vt 0.342510 0.901600
vt 0.342510 0.901600
vt 0.326761 0.834666
vt 0.314949 0.901600
vt 0.342510 0.901600
vt 0.342510 0.901600
vt 0.255890 0.883882
vt 0.255890 0.883882
vt 0.255890 0.883882
vt 0.696863 0.283451
vt 0.740172 0.312980
vt 0.740172 0.312980
vt 0.696863 0.283451
vt 0.696863 0.283451
vt 0.740172 0.312980
vt 0.696863 0.283451
vt 0.740172 0.312980
vt 0.740172 0.312980
vt 0.696863 0.283451
s 0
usemtl Colors
f 1/1/1 2/2/1 4/4/1 3/3/1
f 19/25/2 2/2/2 6/6/2 22/30/2
f 26/38/3 4/4/3 2/2/3 19/25/3
f 32/49/4 22/30/4 6/6/4 5/5/4
f 2/2/1 1/1/1 5/5/1 6/6/1
f 1/1/1 3/3/1 7/7/1 8/8/1
f 29/42/4 1/1/4 8/8/4 35/54/4
f 23/32/5 12/15/5 13/17/5 37/57/5
f 31/46/5 9/9/5 10/11/5 34/51/5
f 20/28/6 11/13/6 43/65/6 46/72/6
f 12/16/7 23/33/7 47/73/7 42/63/7
f 3/3/8 4/4/8 26/38/8 16/21/8
f 16/21/8 26/38/8 27/39/8 15/20/8
f 15/20/8 27/39/8 28/40/8 14/18/8
f 3/3/9 16/21/9 25/36/9 7/7/9
f 16/21/9 15/20/9 24/34/9 25/36/9
f 15/20/9 14/18/9 23/31/9 24/34/9
f 1/1/5 29/42/5 32/49/5 5/5/5
f 29/42/5 30/44/5 33/50/5 32/49/5
f 30/44/5 31/47/5 34/53/5 33/50/5
f 7/7/5 25/36/5 35/54/5 8/8/5
f 25/37/5 24/35/5 36/56/5 35/55/5
f 24/35/5 23/32/5 37/57/5 36/56/5
f 9/10/4 31/48/4 37/57/4 13/17/4
f 31/48/4 30/45/4 36/56/4 37/57/4
f 30/45/4 29/43/4 35/55/4 36/56/4
f 10/12/4 11/14/4 20/26/4 34/52/4
f 34/53/4 20/27/4 21/29/4 33/50/4
f 33/50/4 21/29/4 22/30/4 32/49/4
f 14/19/10 28/41/10 38/59/10 44/67/10
f 28/40/3 27/39/3 18/24/3 17/22/3
f 27/39/3 26/38/3 19/25/3 18/24/3
f 23/33/10 14/19/10 44/67/10 47/73/10
f 17/22/2 18/24/2 21/29/2 20/27/2
f 18/24/2 19/25/2 22/30/2 21/29/2
f 44/68/9 41/62/9 42/64/9 47/74/9
f 44/68/8 38/58/8 39/60/8 41/62/8
f 39/60/3 38/58/3 45/69/3 40/61/3
f 40/61/2 45/69/2 46/71/2 43/66/2
f 17/23/10 20/28/10 46/72/10 45/70/10
f 28/41/10 17/23/10 45/70/10 38/59/10
f 48/75/10 50/77/10 51/78/10 49/76/10
f 61/90/2 64/95/2 53/80/2 49/76/2
f 68/103/3 61/90/3 49/76/3 51/78/3
f 74/114/4 52/79/4 53/80/4 64/95/4
f 49/76/10 53/80/10 52/79/10 48/75/10
f 48/75/10 55/82/10 54/81/10 50/77/10
f 71/107/4 77/119/4 55/82/4 48/75/4
f 65/97/5 79/122/5 13/17/5 12/15/5
f 73/111/5 76/116/5 10/11/5 9/9/5
f 62/93/6 83/130/6 43/65/6 11/13/6
f 12/16/7 42/63/7 84/131/7 65/98/7
f 50/77/8 58/86/8 68/103/8 51/78/8
f 58/86/8 57/85/8 69/104/8 68/103/8
f 57/85/8 56/83/8 70/105/8 69/104/8
f 50/77/9 54/81/9 67/101/9 58/86/9
f 58/86/9 67/101/9 66/99/9 57/85/9
f 57/85/9 66/99/9 65/96/9 56/83/9
f 48/75/5 52/79/5 74/114/5 71/107/5
f 71/107/5 74/114/5 75/115/5 72/109/5
f 72/109/5 75/115/5 76/118/5 73/112/5
f 54/81/5 55/82/5 77/119/5 67/101/5
f 67/102/5 77/120/5 78/121/5 66/100/5
f 66/100/5 78/121/5 79/122/5 65/97/5
f 9/10/4 13/17/4 79/122/4 73/113/4
f 73/113/4 79/122/4 78/121/4 72/110/4
f 72/110/4 78/121/4 77/120/4 71/108/4
f 10/12/4 76/117/4 62/91/4 11/14/4
f 76/118/4 75/115/4 63/94/4 62/92/4
f 75/115/4 74/114/4 64/95/4 63/94/4
f 56/84/1 81/125/1 80/124/1 70/106/1
f 70/105/3 59/87/3 60/89/3 69/104/3
f 69/104/3 60/89/3 61/90/3 68/103/3
f 65/98/1 84/131/1 81/125/1 56/84/1
f 59/87/2 62/92/2 63/94/2 60/89/2
f 60/89/2 63/94/2 64/95/2 61/90/2
f 81/126/9 84/132/9 42/64/9 41/62/9
f 81/126/8 41/62/8 39/60/8 80/123/8
f 39/60/3 40/61/3 82/127/3 80/123/3
f 40/61/2 43/66/2 83/129/2 82/127/2
f 59/88/1 82/128/1 83/130/1 62/93/1
f 70/106/1 80/124/1 82/128/1 59/88/1
